<svg width="17" height="20" viewBox="0 0 17 20" fill="none" xmlns="http://www.w3.org/2000/svg">
<path d="M14.0066 2.41887C13.2561 1.66016 12.3599 1.05563 11.3699 0.640395C10.38 0.225156 9.31597 0.00747767 8.23975 0L8.18592 0C6.03001 0.00936178 3.96407 0.85107 2.433 2.34386C0.901931 3.83666 0.0282159 5.86112 8.65155e-06 7.98127V19.1557C-0.000519481 19.27 0.0231377 19.3832 0.0694762 19.488C0.115815 19.5928 0.183821 19.687 0.269171 19.7646C0.428017 19.9131 0.638803 19.9959 0.857965 19.9959C1.07713 19.9959 1.28791 19.9131 1.44676 19.7646L5.61205 15.7276C6.43718 15.9181 7.27652 16.0432 8.122 16.1015H8.19265C10.3426 16.0661 12.3951 15.2136 13.9199 13.7226C15.4447 12.2316 16.3234 10.2179 16.3718 8.10371C16.3793 7.04941 16.174 6.00413 15.768 5.02834C15.3621 4.05255 14.7633 3.16562 14.0066 2.41887ZM8.19265 14.864H8.13209C7.29835 14.8002 6.47129 14.6696 5.65916 14.4735C5.5229 14.4445 5.38147 14.4493 5.24757 14.4875C5.11366 14.5256 4.99149 14.5958 4.89204 14.6919L1.25834 18.1994C1.25834 14.0334 1.25834 8.14341 1.25834 7.99451C1.28299 6.19996 2.02245 4.48654 3.31783 3.22245C4.61321 1.95836 6.36111 1.24449 8.18592 1.23425H8.23303C9.14547 1.2405 10.0476 1.42509 10.8868 1.77729C11.7261 2.12949 12.4858 2.64227 13.1217 3.28582C13.7649 3.91598 14.2746 4.66545 14.6211 5.49078C14.9677 6.3161 15.1442 7.20086 15.1404 8.09378C15.0996 9.88758 14.3525 11.5958 13.0566 12.8586C11.7606 14.1215 10.0169 14.8404 8.19265 14.864Z" fill="#AAAAAA"/>
<path d="M9.92843 4.9141C9.78108 4.83551 9.60803 4.81766 9.4473 4.86447C9.28649 4.91252 9.15121 5.02061 9.07047 5.16559C8.99112 5.31058 8.9731 5.48051 9.02035 5.63848C9.06759 5.79645 9.17627 5.92973 9.32281 6.00938C9.78418 6.25501 10.1505 6.64318 10.3652 7.11396C10.5799 7.58474 10.6311 8.11194 10.5108 8.61416C10.3905 9.11638 10.1054 9.56568 9.69962 9.8927C9.29382 10.2197 8.78984 10.4063 8.26551 10.4235C7.74118 10.4408 7.22565 10.2878 6.79852 9.9882C6.37139 9.68861 6.05643 9.25905 5.90225 8.76587C5.74808 8.27269 5.76327 7.7433 5.94549 7.25946C6.12771 6.77561 6.46681 6.36422 6.91044 6.08879C6.98451 6.04716 7.04926 5.99122 7.10077 5.92435C7.15229 5.85747 7.18952 5.78103 7.21022 5.69963C7.23092 5.61823 7.23467 5.53356 7.22123 5.4507C7.20779 5.36784 7.17745 5.28851 7.13203 5.21749C7.08661 5.14646 7.02705 5.08521 6.95694 5.03741C6.88682 4.98961 6.8076 4.95625 6.72403 4.93935C6.64047 4.92245 6.55429 4.92234 6.47068 4.93904C6.38708 4.95574 6.30777 4.98891 6.23753 5.03654C5.56026 5.45881 5.04304 6.08849 4.76563 6.82846C4.48823 7.56844 4.46604 8.37762 4.7025 9.13122C4.93896 9.88482 5.42093 10.541 6.07408 10.9985C6.72724 11.4561 7.5153 11.6896 8.31676 11.6631C9.11821 11.6366 9.88854 11.3515 10.509 10.8518C11.1294 10.3522 11.5654 9.66561 11.7499 8.89808C11.9343 8.13056 11.8569 7.32468 11.5295 6.60471C11.2022 5.88473 10.6431 5.29067 9.93852 4.9141H9.92843Z" fill="#AAAAAA"/>
<path d="M8.10812 4.05029C8.02505 4.05029 7.9428 4.06638 7.86606 4.09765C7.78932 4.12891 7.71959 4.17473 7.66085 4.2325C7.60211 4.29026 7.55552 4.35884 7.52373 4.43432C7.49195 4.50979 7.47559 4.59069 7.47559 4.67238V7.31957C7.47559 7.48456 7.54223 7.64279 7.66085 7.75945C7.77947 7.87612 7.94036 7.94166 8.10812 7.94166C8.27588 7.94166 8.43676 7.87612 8.55539 7.75945C8.67401 7.64279 8.74065 7.48456 8.74065 7.31957V4.67238C8.74065 4.59069 8.72429 4.50979 8.6925 4.43432C8.66072 4.35884 8.61412 4.29026 8.55539 4.2325C8.49665 4.17473 8.42692 4.12891 8.35018 4.09765C8.27344 4.06638 8.19118 4.05029 8.10812 4.05029Z" fill="#AAAAAA"/>
</svg>
